# xmcd
# Track frame offsets:
# 183
# 17483
# 51330
#
# Disc length: 975 seconds
# Revision: 9
# Processed by: cddbd v1.5.2PL0 Copyright (c) Steve Scherf et al.
# Submitted via: VisiTrax 2.11.3.279 - For more info visit www.synapsa.com
#
DISCID=1c03cd03
DTITLE=Crystal Waters - Gypsy Woman (La Da Dee La Da Da)
DYEAR=1991
DGENRE=House
TTITLE0=Woman, Gypsy (La Da Dee La Da Da) (Strip To the Bone Edit)
TTITLE1=Gypsy Woman (La Da Dee La Da Da) (Basement Boy - Strip To the Bone Mix
TTITLE1=)
TTITLE2=Gypsy Woman (La Da Dee La Da Da) (Hump instrumental Mix)
EXTD=
EXTT0=
EXTT1=
EXTT2=
PLAYORDER=
